<svg xmlns="http://www.w3.org/2000/svg" viewBox="0 0 841.9 595.3">
    <symbol id="burger" viewBox="0 0 24 24" fill="none" xmlns="http://www.w3.org/2000/svg">
        <path d="M2 7.00006H22C22.2652 7.00006 22.5196 6.8947 22.7071 6.70717C22.8946 6.51963 23 6.26528 23 6.00006C23 5.73484 22.8946 5.48049 22.7071 5.29295C22.5196 5.10542 22.2652 5.00006 22 5.00006H2C1.73478 5.00006 1.48043 5.10542 1.29289 5.29295C1.10536 5.48049 1 5.73484 1 6.00006C1 6.26528 1.10536 6.51963 1.29289 6.70717C1.48043 6.8947 1.73478 7.00006 2 7.00006Z" fill="white"/>
        <path d="M22 11.0001H2C1.73478 11.0001 1.48043 11.1054 1.29289 11.293C1.10536 11.4805 1 11.7348 1 12.0001C1 12.2653 1.10536 12.5196 1.29289 12.7072C1.48043 12.8947 1.73478 13.0001 2 13.0001H22C22.2652 13.0001 22.5196 12.8947 22.7071 12.7072C22.8946 12.5196 23 12.2653 23 12.0001C23 11.7348 22.8946 11.4805 22.7071 11.293C22.5196 11.1054 22.2652 11.0001 22 11.0001Z" fill="white"/>
        <path d="M22 17.0001H2C1.73478 17.0001 1.48043 17.1054 1.29289 17.293C1.10536 17.4805 1 17.7348 1 18.0001C1 18.2653 1.10536 18.5196 1.29289 18.7072C1.48043 18.8947 1.73478 19.0001 2 19.0001H22C22.2652 19.0001 22.5196 18.8947 22.7071 18.7072C22.8946 18.5196 23 18.2653 23 18.0001C23 17.7348 22.8946 17.4805 22.7071 17.293C22.5196 17.1054 22.2652 17.0001 22 17.0001Z" fill="white"/>
    </symbol>

    <symbol id="close" viewBox="0 0 24 24" fill="none" xmlns="http://www.w3.org/2000/svg">
        <path d="M20.0029 18.7067L5.29311 3.99699C5.09804 3.80193 4.84268 3.68315 4.58319 3.66677C4.3237 3.6504 4.08134 3.73778 3.90944 3.90969C3.73753 4.0816 3.65015 4.32395 3.66652 4.58344C3.68289 4.84293 3.80168 5.09829 3.99674 5.29336L18.7065 20.0031C18.9016 20.1982 19.1569 20.317 19.4164 20.3333C19.6759 20.3497 19.9183 20.2623 20.0902 20.0904C20.2621 19.9185 20.3495 19.6762 20.3331 19.4167C20.3167 19.1572 20.1979 18.9018 20.0029 18.7067Z" fill="white"/>
        <path d="M5.29353 20.0031L20.0033 5.29335C20.1983 5.09829 20.3171 4.84292 20.3335 4.58343C20.3499 4.32394 20.2625 4.08159 20.0906 3.90968C19.9187 3.73777 19.6763 3.65039 19.4168 3.66677C19.1573 3.68314 18.902 3.80192 18.7069 3.99699L3.99716 18.7067C3.8021 18.9018 3.68332 19.1572 3.66694 19.4167C3.65057 19.6761 3.73795 19.9185 3.90986 20.0904C4.08177 20.2623 4.32412 20.3497 4.58361 20.3333C4.8431 20.3169 5.09847 20.1982 5.29353 20.0031Z" fill="white"/>
    </symbol>

    <symbol id="instagram" viewBox="0 0 34 34" fill="none" xmlns="http://www.w3.org/2000/svg">
        <g clip-path="url(#clip0_46:587)">
            <path d="M20.4001 10.1997H13.6001C11.6961 10.1997 10.2001 11.6957 10.2001 13.5997V20.3997C10.2001 22.3037 11.6961 23.7997 13.6001 23.7997H20.4001C22.3041 23.7997 23.8001 22.3037 23.8001 20.3997V13.5997C23.8001 11.6957 22.3041 10.1997 20.4001 10.1997ZM22.4401 20.3997C22.4401 21.5557 21.5561 22.4397 20.4001 22.4397H13.6001C12.4441 22.4397 11.5601 21.5557 11.5601 20.3997V13.5997C11.5601 12.4437 12.4441 11.5597 13.6001 11.5597H20.4001C21.5561 11.5597 22.4401 12.4437 22.4401 13.5997V20.3997Z" fill="white"/>
            <path d="M17.0001 13.5996C15.0961 13.5996 13.6001 15.0956 13.6001 16.9996C13.6001 18.9036 15.0961 20.3996 17.0001 20.3996C18.9041 20.3996 20.4001 18.9036 20.4001 16.9996C20.4001 15.0956 18.9041 13.5996 17.0001 13.5996ZM17.0001 19.0396C15.8441 19.0396 14.9601 18.1556 14.9601 16.9996C14.9601 15.8436 15.8441 14.9596 17.0001 14.9596C18.1561 14.9596 19.0401 15.8436 19.0401 16.9996C19.0401 18.1556 18.1561 19.0396 17.0001 19.0396Z" fill="white"/>
            <path d="M20.4001 14.2797C20.7756 14.2797 21.0801 13.9752 21.0801 13.5997C21.0801 13.2241 20.7756 12.9197 20.4001 12.9197C20.0245 12.9197 19.7201 13.2241 19.7201 13.5997C19.7201 13.9752 20.0245 14.2797 20.4001 14.2797Z" fill="white"/>
        </g>
        <circle cx="17" cy="17" r="16.5" stroke="white"/>
        <defs>
            <clipPath id="clip0_46:587">
                <rect width="13.6" height="13.6" fill="white" transform="translate(10.2001 10.1997)"/>
            </clipPath>
        </defs>
    </symbol>

    <symbol id="linkedIn" viewBox="0 0 34 34" fill="none" xmlns="http://www.w3.org/2000/svg">
        <path d="M23.12 22.27V17.7871C23.12 15.5839 22.6457 13.9009 20.0753 13.9009C18.836 13.9009 18.0098 14.5741 17.6732 15.2167H17.6426V14.0998H15.2099V22.27H17.7497V18.2155C17.7497 17.1445 17.9486 16.1194 19.2644 16.1194C20.5649 16.1194 20.5802 17.3281 20.5802 18.2767V22.2547H23.12V22.27Z" fill="white"/>
        <path d="M11.0789 14.0999H13.6187V22.2701H11.0789V14.0999Z" fill="white"/>
        <path d="M12.3488 10.03C11.5379 10.03 10.88 10.6879 10.88 11.4988C10.88 12.3097 11.5379 12.9829 12.3488 12.9829C13.1597 12.9829 13.8176 12.3097 13.8176 11.4988C13.8176 10.6879 13.1597 10.03 12.3488 10.03Z" fill="white"/>
        <circle cx="17" cy="17" r="16.5" stroke="white"/>
    </symbol>

    <symbol id="telegram" viewBox="0 0 50 50" fill="none" xmlns="http://www.w3.org/2000/svg">
        <g clip-path="url(#clip0_46:666)">
            <path d="M19.6188 31.627L18.7917 43.2604C19.975 43.2604 20.4875 42.752 21.1021 42.1416L26.65 36.8395L38.1458 45.2583C40.2542 46.4333 41.7396 45.8145 42.3083 43.3187L49.8542 7.96037L49.8563 7.95828C50.525 4.84162 48.7292 3.62287 46.675 4.38745L2.32084 21.3687C-0.706246 22.5437 -0.660412 24.2312 1.80625 24.9958L13.1458 28.5229L39.4854 12.0416C40.725 11.2208 41.8521 11.675 40.925 12.4958L19.6188 31.627Z" fill="#279FDB"/>
        </g>
        <defs>
            <clipPath id="clip0_46:666">
                <rect width="50" height="50" fill="white"/>
            </clipPath>
        </defs>
    </symbol>

    <symbol id="twitter" viewBox="0 0 50 50" fill="none" xmlns="http://www.w3.org/2000/svg">
        <g clip-path="url(#clip0_46:661)">
            <path d="M44.8625 14.8187C46.8958 13.375 48.6062 11.5729 50 9.49792V9.49583C48.1396 10.3104 46.1604 10.8521 44.0938 11.1146C46.2188 9.84583 47.8417 7.85208 48.6042 5.45C46.6229 6.63125 44.4354 7.46458 42.1042 7.93125C40.2229 5.92708 37.5417 4.6875 34.6167 4.6875C28.9417 4.6875 24.3729 9.29375 24.3729 14.9396C24.3729 15.7521 24.4417 16.5333 24.6104 17.2771C16.0896 16.8604 8.54792 12.7771 3.48125 6.55417C2.59792 8.08958 2.07708 9.84583 2.07708 11.7354C2.07708 15.2854 3.90417 18.4312 6.63125 20.2542C4.98333 20.2229 3.36875 19.7437 2 18.9917V19.1042C2 24.0854 5.55208 28.2229 10.2125 29.1771C9.37708 29.4062 8.46875 29.5146 7.525 29.5146C6.86875 29.5146 6.20625 29.4771 5.58542 29.3396C6.9125 33.3979 10.6833 36.3833 15.1625 36.4812C11.675 39.2083 7.24583 40.8521 2.45208 40.8521C1.6125 40.8521 0.80625 40.8146 0 40.7125C4.54167 43.6396 9.92083 45.3125 15.725 45.3125C33.8146 45.3125 45.6042 30.2208 44.8625 14.8187Z" fill="#1DA1F2"/>
        </g>
        <defs>
            <clipPath id="clip0_46:661">
                <rect width="50" height="50" fill="white"/>
            </clipPath>
        </defs>
    </symbol>

    <symbol id="discord" viewBox="0 0 50 50" fill="none" xmlns="http://www.w3.org/2000/svg">
        <g clip-path="url(#clip0_46:647)">
            <path d="M7.45834 44.1583H37.1646L35.7458 39.5646L39.1396 42.4771L42.25 45.2646L47.9167 50V5.15625C47.775 2.36875 45.375 0 42.4 0L7.46876 0.00625C4.49584 0.00625 2.08334 2.37917 2.08334 5.16667V39C2.08334 41.9396 4.49168 44.1583 7.45834 44.1583ZM29.4333 11.8396L29.3646 11.8646L29.3896 11.8396H29.4333ZM13.5354 14.4833C17.3542 11.7042 20.8938 11.8375 20.8938 11.8375L21.1792 12.1187C16.5063 13.2333 14.3875 15.3208 14.3875 15.3208C14.3875 15.3208 14.9542 15.0437 15.9438 14.6208C22.2375 12.1458 29.1104 12.325 35.4729 15.4583C35.4729 15.4583 33.35 13.5062 28.9646 12.2562L29.3521 11.875C29.9583 11.8771 33.1667 11.9896 36.6 14.5C36.6 14.5 40.4417 21.0625 40.4417 29.125C40.3146 28.9708 38.0583 32.5958 32.2521 32.7208C32.2521 32.7208 31.2688 31.6083 30.5688 30.6375C33.9646 29.6625 35.2354 27.7125 35.2354 27.7125C34.1208 28.4146 33.1042 28.8312 32.2792 29.2479C31.0104 29.8062 29.7396 30.0812 28.4708 30.3625C22.4625 31.3375 19.0896 29.7062 15.9021 28.4125L14.8125 27.8583C14.8125 27.8583 16.0813 29.8083 19.3417 30.7833C18.4854 31.7604 17.6375 32.8708 17.6375 32.8708C11.8333 32.7333 9.71668 29.1083 9.71668 29.1083C9.71668 21.0333 13.5354 14.4833 13.5354 14.4833Z" fill="#5561F5"/>
            <path d="M29.8083 26.6064C31.2896 26.6064 32.4958 25.3564 32.4958 23.8147C32.4958 22.2834 31.2958 21.0334 29.8083 21.0334V21.0397C28.3333 21.0397 27.125 22.2855 27.1208 23.8272C27.1208 25.3564 28.3271 26.6064 29.8083 26.6064Z" fill="#5561F5"/>
            <path d="M20.1876 26.6064C21.6688 26.6064 22.8751 25.3564 22.8751 23.8147C22.8751 22.2834 21.6771 21.0334 20.1959 21.0334L20.1876 21.0397C18.7063 21.0397 17.5001 22.2855 17.5001 23.8272C17.5001 25.3564 18.7063 26.6064 20.1876 26.6064Z" fill="#5561F5"/>
        </g>
        <defs>
            <clipPath id="clip0_46:647">
                <rect width="50" height="50" fill="white"/>
            </clipPath>
        </defs>
    </symbol>

    <symbol id="email" viewBox="0 0 50 50" fill="none" xmlns="http://www.w3.org/2000/svg">
        <path d="M25.0001 22.6458L44.7084 11.0833C44.1411 10.2438 43.3781 9.55484 42.4853 9.07577C41.5925 8.59671 40.5966 8.34188 39.5834 8.33325H10.4168C9.39838 8.33281 8.39532 8.58122 7.49485 9.05687C6.59438 9.53252 5.82378 10.221 5.25009 11.0624L25.0001 22.6458Z" fill="white"/>
        <path d="M25.0001 22.6458L44.7084 11.0833C44.1411 10.2438 43.3781 9.55484 42.4853 9.07577C41.5925 8.59671 40.5966 8.34188 39.5834 8.33325H10.4168C9.39838 8.33281 8.39532 8.58122 7.49485 9.05687C6.59438 9.53252 5.82378 10.221 5.25009 11.0624L25.0001 22.6458Z" fill="url(#paint0_linear_46:654)"/>
        <path d="M27.0834 26.2291C26.4504 26.5963 25.7318 26.7903 25 26.7916C24.2701 26.7966 23.5517 26.6098 22.9167 26.2499L4.16669 15.2708V35.4166C4.16669 37.0742 4.82517 38.6639 5.99727 39.836C7.16937 41.0081 8.75908 41.6666 10.4167 41.6666H39.5834C41.241 41.6666 42.8307 41.0081 44.0028 39.836C45.1749 38.6639 45.8334 37.0742 45.8334 35.4166V15.2708L27.0834 26.2291Z" fill="white"/>
        <path d="M27.0834 26.2291C26.4504 26.5963 25.7318 26.7903 25 26.7916C24.2701 26.7966 23.5517 26.6098 22.9167 26.2499L4.16669 15.2708V35.4166C4.16669 37.0742 4.82517 38.6639 5.99727 39.836C7.16937 41.0081 8.75908 41.6666 10.4167 41.6666H39.5834C41.241 41.6666 42.8307 41.0081 44.0028 39.836C45.1749 38.6639 45.8334 37.0742 45.8334 35.4166V15.2708L27.0834 26.2291Z" fill="url(#paint1_linear_46:654)"/>
        <defs>
            <linearGradient id="paint0_linear_46:654" x1="0.107915" y1="13.181" x2="47.3135" y2="22.7424" gradientUnits="userSpaceOnUse">
                <stop offset="0.120104" stop-color="#A6C17B"/>
                <stop offset="0.589789" stop-color="#E1A56A"/>
                <stop offset="1" stop-color="#D5517F"/>
            </linearGradient>
            <linearGradient id="paint1_linear_46:654" x1="-1.26328" y1="24.2113" x2="49.9405" y2="30.1495" gradientUnits="userSpaceOnUse">
                <stop offset="0.120104" stop-color="#A6C17B"/>
                <stop offset="0.589789" stop-color="#E1A56A"/>
                <stop offset="1" stop-color="#D5517F"/>
            </linearGradient>
        </defs>
    </symbol>

    <symbol id="check" viewBox="0 0 10 10" fill="none" xmlns="http://www.w3.org/2000/svg">
        <path d="M4.08232 7.84837C4.00752 7.92357 3.90552 7.96557 3.79952 7.96557C3.69352 7.96557 3.59152 7.92357 3.51672 7.84837L1.25832 5.58957C1.02392 5.35517 1.02392 4.97517 1.25832 4.74117L1.54112 4.45837C1.77552 4.22397 2.15512 4.22397 2.38952 4.45837L3.79952 5.86837L7.60952 2.05837C7.84392 1.82397 8.22392 1.82397 8.45792 2.05837L8.74072 2.34117C8.97512 2.57557 8.97512 2.95557 8.74072 3.18957L4.08232 7.84837Z" fill="white"/>
    </symbol>

    <symbol id="copying" viewBox="0 0 18 18" fill="none" xmlns="http://www.w3.org/2000/svg">
        <path d="M11.25 2.8125H3.375C2.44302 2.8125 1.6875 3.56802 1.6875 4.5V15.75C1.6875 16.682 2.44302 17.4375 3.375 17.4375H11.25C12.182 17.4375 12.9375 16.682 12.9375 15.75V4.5C12.9375 3.56802 12.182 2.8125 11.25 2.8125Z" fill="#B6BA77"/>
        <path d="M16.3126 2.25V13.5C16.3112 13.9471 16.133 14.3756 15.8168 14.6918C15.5007 15.0079 15.0722 15.1862 14.6251 15.1875H14.0626V4.5C14.0626 3.75408 13.7663 3.03871 13.2388 2.51126C12.7114 1.98382 11.996 1.6875 11.2501 1.6875H5.16382C5.27987 1.35925 5.49461 1.07494 5.77859 0.873528C6.06258 0.672119 6.40191 0.563478 6.75007 0.5625H14.6251C15.0722 0.563835 15.5007 0.742054 15.8168 1.05823C16.133 1.37441 16.3112 1.80286 16.3126 2.25Z" fill="#B6BA77"/>
    </symbol>

    <symbol id="close" viewBox="0 0 24 24" fill="none" xmlns="http://www.w3.org/2000/svg">
        <path d="M20.0029 18.7067L5.29311 3.99699C5.09804 3.80193 4.84268 3.68315 4.58319 3.66677C4.3237 3.6504 4.08134 3.73778 3.90944 3.90969C3.73753 4.0816 3.65015 4.32395 3.66652 4.58344C3.68289 4.84293 3.80168 5.09829 3.99674 5.29336L18.7065 20.0031C18.9016 20.1982 19.1569 20.317 19.4164 20.3333C19.6759 20.3497 19.9183 20.2623 20.0902 20.0904C20.2621 19.9185 20.3495 19.6762 20.3331 19.4167C20.3167 19.1572 20.1979 18.9018 20.0029 18.7067Z" fill="white"/>
        <path d="M5.29353 20.0031L20.0033 5.29335C20.1983 5.09829 20.3171 4.84292 20.3335 4.58343C20.3499 4.32394 20.2625 4.08159 20.0906 3.90968C19.9187 3.73777 19.6763 3.65039 19.4168 3.66677C19.1573 3.68314 18.902 3.80192 18.7069 3.99699L3.99716 18.7067C3.8021 18.9018 3.68332 19.1572 3.66694 19.4167C3.65057 19.6761 3.73795 19.9185 3.90986 20.0904C4.08177 20.2623 4.32412 20.3497 4.58361 20.3333C4.8431 20.3169 5.09847 20.1982 5.29353 20.0031Z" fill="white"/>
    </symbol>

</svg>
